<?xml version="1.0" encoding="utf-8"?>
<!-- Generator: Adobe Illustrator 24.3.0, SVG Export Plug-In . SVG Version: 6.00 Build 0)  -->
<svg version="1.1" id="Layer_1" xmlns="http://www.w3.org/2000/svg" xmlns:xlink="http://www.w3.org/1999/xlink" x="0px" y="0px"
	 viewBox="0 0 144.5 88.3" style="enable-background:new 0 0 144.5 88.3;" xml:space="preserve">
<style type="text/css">
	.st0{fill:#3A457F;}
</style>
<path class="st0" d="M0,14.5c0-4.1,0.1-8.3,0-12.4C0,0.4,0.6,0,2.2,0C8.6,0.1,15,0,21.4,0c7.9,0,15.1,5.3,17.7,12.8
	c3.5,10.5-1.9,21.2-12.5,24.5c-2.4,0.7-4.8,1-7.3,0.9c-2.6-0.1-4.2,0-6.8,0c-2.4,0-2.4,0-2.4-2.3c0-1.7,0-3.5,0-5.2
	c0-1-1.3-1.4-2.3-1.4c-2,0-4,0-6,0C0.5,29.4,0,29,0,27.7C0.1,23.3,0,18.9,0,14.5z M2.8,14.8c0,2.6,0,5.2,0,7.7c0,4.5,0,4.5,4.6,4.5
	c1.3,0,2.7-0.4,2.7-1.7c-0.1-4.7,0-9.5-0.1-14.2c0-1.6,0.6-2.1,2.1-2.1c2.5,0.1,4.1,0,6.6,0c2.7,0,5.4-0.2,8.1,0.6
	c3.9,1.2,7,5.2,7.1,9.5c0,4.4-3.2,8.5-6.8,9.6c-2.3,0.7-6.3,0.6-12.4,0.6c-0.4,0-1.4,0-1.7,0.6c-0.1,0.2-0.1,0.4-0.1,1.3
	c0,1.5,0,1,0,1.5c0,2,0.1,2.4,0.4,2.6c0.2,0.1,0.4,0.1,0.5,0.1c8.7,0.2,10.6-0.3,10.6-0.3c8.9-1.8,15.1-10,12.8-20.1
	C35.1,7.2,28.8,2.7,20.7,2.5c-5.4-0.1-10.9,0-16.3,0c-1.3,0-1.7,0.5-1.7,1.7C2.8,7.7,2.8,11.3,2.8,14.8z M12.5,19.4c0,2,0.1,4,0,5.9
	c-0.1,1.4,0.5,1.7,1.8,1.7c3.3-0.1,5.7,0,9,0c0.7,0,1.4,0,2-0.2c3.9-1.3,5.9-4.8,5.2-9.1c-0.5-3.2-3.5-5.8-7.2-5.9
	c-3.4-0.1-5.9,0-9.3,0c-1,0-1.4,0.4-1.4,1.4C12.5,15.2,12.5,17.3,12.5,19.4z"/>
<path class="st0" d="M4.5,30.4c2.3,0,4.3,1.9,4.3,4.2c0,2.4-2,4.4-4.4,4.3c-2.3,0-4.4-2.2-4.3-4.4C0.1,32.4,2.3,30.4,4.5,30.4z
	 M6.3,34.4c-0.1-0.9-0.9-1.3-1-1.3c-0.1,0-0.4-0.2-0.8-0.2c-1.1,0-1.8,0.7-1.8,1.7c0,1,0.8,1.8,1.9,1.7c0.4,0,0.7-0.2,0.8-0.2
	C5.8,35.8,6.4,35.2,6.3,34.4z"/>
<path class="st0" d="M20,80.2c-5.8,0-11.6,0-17.4,0c-0.8,0-1.5-0.2-2.1-0.8C0.2,79,0,78.5,0,78c0-1.8,0-3.6,0-5.4c0-2,0-4,0-6.1
	c0-2.5,0.9-4.7,2.6-6.6c2-2.3,4.7-3.6,7.7-4.2c1.2-0.2,2.4-0.3,3.6-0.3c3.9,0,7.8,0,11.7,0c0.1,0,0.1,0,0.2,0c0.5,0,0.5,0,0.5-0.5
	c0-0.5,0-0.5-0.5-0.5c-0.8,0-1.6,0-2.4,0c-7,0-13.9,0-20.9,0c-0.9,0-1.8-0.3-2.3-1.1C0.1,53,0,52.7,0,52.4c0-2.6,0-5.2,0-7.8
	c0-1.1,0.9-2,2.1-2.1c0.3,0,0.6,0,0.8,0c11.5,0,23,0,34.5,0c0.5,0,1.1,0.1,1.6,0.3c0.8,0.4,1.2,1,1.2,1.9c0,3.2,0,6.4,0,9.6
	c0,0.9,0,1.8,0,2.7c-0.2,2.2-1,4.1-2.5,5.8c-2.2,2.5-4.9,3.8-8.1,4.4c-0.9,0.2-1.8,0.2-2.7,0.2c-4.2,0-8.4,0-12.6,0
	c-0.4,0-0.4,0-0.4,0.4c0,0.1,0,0.1,0,0.2c0,0.2,0,0.3,0.3,0.3c7.9,0,15.7,0,23.6,0c0.7,0,1.4,0.2,1.9,0.7c0.4,0.4,0.6,0.8,0.6,1.3
	c0,2.5,0,5,0,7.5c0,1.2-0.8,2.1-2,2.2c-0.3,0-0.5,0.1-0.8,0.1C31.5,80.2,25.8,80.2,20,80.2z M20.1,44.9c-5.7,0-11.4,0-17.1,0
	c-0.3,0-0.4,0.1-0.4,0.4c0,2.1,0,4.2,0,6.3c0,0.4,0,0.4,0.4,0.4c7.7,0,15.5,0,23.2,0c0.3,0,0.6,0,0.8,0c1,0,1.9,0.8,1.9,1.9
	c0,0.6,0,1.2,0,1.9c0.1,1.4-1.1,2.2-2.2,2.2c-4.3,0-8.6,0-13,0c-0.6,0-1.2,0-1.8,0.1c-1.9,0.2-3.6,0.7-5.2,1.6c-2,1.2-3.4,2.8-4,5
	c-0.2,0.9-0.3,1.8-0.2,2.8c0,3.4,0,6.7,0,10.1c0,0.3,0.1,0.3,0.3,0.3c11.4,0,22.9,0,34.3,0c0.2,0,0.3-0.1,0.3-0.3c0-2.1,0-4.3,0-6.4
	c0-0.3-0.1-0.4-0.4-0.4c-8,0-15.9,0-23.9,0c-0.1,0-0.2,0-0.3,0c-0.9,0-1.8-0.8-1.8-1.7c0-0.7,0-1.4,0-2.1c0-0.8,0.5-1.4,1.2-1.7
	c0.4-0.1,0.8-0.2,1.2-0.2c4.5,0,9,0,13.5,0c2.5,0,4.7-0.7,6.7-2.1c2.5-1.7,3.8-4,3.8-7.1c0-3.5,0-7,0-10.5c0-0.3-0.1-0.4-0.4-0.4
	C31.5,44.9,25.8,44.9,20.1,44.9z"/>
<path d="M58.1,16.3c-1.5-1.4-3.7-2.2-6.5-2.2c-1.4,0-4.2,0.2-7.2,1.9c-0.5,0.3-0.7,0.8-0.5,1.3l0.9,2.6c0.1,0.3,0.3,0.5,0.6,0.6
	c0.1,0.1,0.3,0.1,0.4,0.1c0.2,0,0.3,0,0.5-0.1c1.8-0.8,3.8-1.3,5.3-1.3c3,0,3.4,1.2,3.4,2.6v0.2c-2,0.1-4.9,0.5-7.4,1.8
	c-3.1,1.6-4.7,4.1-4.7,7.3c0,2,0.7,3.9,2,5.1c1.4,1.3,3.3,2.1,5.6,2.1c2,0,3.7-0.5,5.1-1.5l0,0.2c0.1,0.5,0.5,0.9,1.1,0.9h2.5
	c0.6,0,1.1-0.5,1.1-1.1V22.4C60.3,19.7,59.6,17.7,58.1,16.3z M51.1,33.5c-1.3,0-2.9-0.7-2.9-2.5c0-1.6,0.8-2.7,2.3-3.5
	c1.2-0.5,2.7-0.9,4.5-1v4.8C54.6,32.2,53.3,33.5,51.1,33.5z"/>
<path d="M79.8,16.6c-1.4-1.6-3.5-2.5-6.1-2.5c-1.9,0-3.6,0.7-4.9,1.6l-0.1-0.5c-0.1-0.5-0.6-0.8-1-0.8h-2.4c-0.6,0-1.1,0.5-1.1,1.1
	v29.2c0,0.6,0.5,1.1,1.1,1.1h3.1c0.6,0,1.1-0.5,1.1-1.1V37c1.1,0.6,2.5,1.2,4.3,1.2c2.6,0,4.7-0.9,6.1-2.5c1.4-1.6,2.1-3.8,2.1-6.6
	v-5.8C81.8,20.4,81.1,18.2,79.8,16.6z M76.6,23.5v5.4c0,3.6-1.3,4.3-3.6,4.3c-1.3,0-2.4-0.5-3.6-1.4V20.6c1.1-1,2.3-1.5,3.6-1.5
	C75.2,19.1,76.6,19.9,76.6,23.5z"/>
<path d="M102.8,22.5v14.4c0,0.6-0.5,1.1-1.1,1.1h-3.1c-0.6,0-1.1-0.5-1.1-1.1V23.2c0-3.2-1.3-3.9-3.3-3.9c-1.4,0-3,0.8-4,1.7v15.8
	c0,0.6-0.5,1.1-1.1,1.1H86c-0.6,0-1.1-0.5-1.1-1.1V7.7c0-0.6,0.5-1.1,1.1-1.1h3.1c0.6,0,1.1,0.5,1.1,1.1v7.9c1.2-0.8,3-1.6,5.1-1.6
	C100,14.1,102.8,17.2,102.8,22.5z"/>
<path d="M124.3,22.5v14.4c0,0.6-0.5,1.1-1.1,1.1h-3.1c-0.6,0-1.1-0.5-1.1-1.1V23.2c0-3.2-1.3-3.9-3.3-3.9c-1.5,0-2.9,0.9-3.8,1.7
	v15.8c0,0.6-0.5,1.1-1.1,1.1h-3.1c-0.6,0-1.1-0.5-1.1-1.1V15.5c0-0.6,0.5-1.1,1.1-1.1h2.5c0.6,0,1,0.4,1.1,0.9l0.1,0.6
	c1.3-0.9,3.1-1.9,5.4-1.9C121.5,14.1,124.3,17.2,124.3,22.5z"/>
<path d="M142.4,16.6c-1.5-1.7-3.7-2.5-6.5-2.5c-2.8,0-5,0.9-6.5,2.5c-1.4,1.6-2.2,3.8-2.2,6.6v6.5c0,5.4,3.2,8.5,8.9,8.5
	c2.8,0,5.8-1,7.5-2.6c0.4-0.3,0.5-0.9,0.2-1.3l-1.3-2.4c-0.1-0.3-0.4-0.5-0.7-0.5c-0.1,0-0.2,0-0.3,0c-0.2,0-0.4,0.1-0.6,0.2
	c-0.7,0.5-2.6,1.6-4.9,1.6c-3.6,0-3.6-2.1-3.6-2.7v-2.1h10.9c0.6,0,1.1-0.5,1.1-1.1v-4C144.5,20.4,143.8,18.2,142.4,16.6z
	 M135.9,19.1c2.2,0,3.4,0.7,3.4,4.3v0.1h-6.8v-0.1C132.5,19.9,133.7,19.1,135.9,19.1z"/>
<path d="M70.9,56.6L70.9,56.6"/>
<path d="M71.9,56.6c0,0.1,0,0.2,0,0.3l-5.4,22.4c-0.1,0.5-0.6,0.8-1.1,0.8h-4.2c-0.5,0-0.9-0.3-1.1-0.8l-2.8-11.3l-2.8,11.3
	c-0.1,0.5-0.6,0.8-1.1,0.8h-4.2c-0.5,0-0.9-0.3-1.1-0.8l-5.4-22.5c-0.1-0.3,0-0.7,0.2-0.9c0.2-0.3,0.5-0.4,0.8-0.4h3.5
	c0.5,0,1,0.4,1.1,0.9l3,14.2l3.3-14.2c0.1-0.5,0.6-0.8,1.1-0.8h2.9c0.5,0,0.9,0.3,1.1,0.8l3.3,14.2l3-14.2c0.1-0.5,0.6-0.9,1.1-0.9
	h3.5C71.5,55.5,71.9,56,71.9,56.6z"/>
<path d="M92.4,56.6V79c0,0.6-0.5,1.1-1.1,1.1h-2.6c-0.6,0-1-0.4-1.1-0.9l-0.1-0.8c-1.3,1-3.3,2-5.8,2c-4.9,0-7.9-3.3-7.9-8.8V56.6
	c0-0.6,0.5-1.1,1.1-1.1h3.3c0.6,0,1.1,0.5,1.1,1.1v14.3c0,1.6,0.3,2.7,0.9,3.3c0.5,0.6,1.4,0.8,2.6,0.8c1.6,0,3.2-1,4.1-1.8V56.6
	c0-0.6,0.5-1.1,1.1-1.1h3.3C91.9,55.5,92.4,56,92.4,56.6z"/>
<path d="M114.8,56.6V79c0,0.6-0.5,1.1-1.1,1.1h-2.6c-0.6,0-1-0.4-1.1-0.9l-0.1-0.8c-1.3,1-3.3,2-5.8,2c-4.9,0-7.9-3.3-7.9-8.8V56.6
	c0-0.6,0.5-1.1,1.1-1.1h3.3c0.6,0,1.1,0.5,1.1,1.1v14.3c0,1.6,0.3,2.7,0.9,3.3c0.5,0.6,1.4,0.8,2.6,0.8c1.6,0,3.2-1,4.1-1.8V56.6
	c0-0.6,0.5-1.1,1.1-1.1h3.3C114.3,55.5,114.8,56,114.8,56.6z"/>
<path d="M135.3,57.8c-1.5-1.7-3.7-2.6-6.4-2.6c-2,0-3.8,0.7-5.2,1.7l-0.2-0.6c-0.1-0.5-0.6-0.8-1-0.8H120c-0.6,0-1.1,0.5-1.1,1.1
	v30.7c0,0.6,0.5,1.1,1.1,1.1h3.3c0.6,0,1.1-0.5,1.1-1.1v-8.1c1.1,0.7,2.7,1.3,4.5,1.3c2.7,0,4.9-0.9,6.4-2.6c1.4-1.7,2.2-4,2.2-7
	v-6.1C137.5,61.8,136.7,59.4,135.3,57.8z M132,65v5.6c0,1.7-0.3,2.9-0.9,3.6c-0.4,0.4-1.1,1-2.9,1c-1.4,0-2.6-0.5-3.8-1.6V61.9
	c1.2-1,2.4-1.5,3.8-1.5c1.9,0,2.6,0.6,2.9,1C131.7,62.1,132,63.3,132,65z"/>
</svg>
