<?xml version="1.0" encoding="utf-8"?><svg version="1.1" id="Layer_1" xmlns="http://www.w3.org/2000/svg" xmlns:xlink="http://www.w3.org/1999/xlink" x="0px" y="0px" viewBox="0 0 207.8 200" style="enable-background:new 0 0 207.8 200;" xml:space="preserve"><path class="st0" d="M75.2,159.9"/><g><g><g><path d="M202.7,62.1c-1-2.3-2.2-3.9-4-5c-16.4-10-32.7-20-49.1-30c-12.1-7.4-24.2-14.8-36.2-22.2c-2.2-1.3-4.6-2.7-7.9-4.3c-2.1-1-4.3-0.9-6.5,0.4L85.7,9.2c-25,15.2-50.9,30.9-76.4,46.3c-4.7,2.8-6.7,6.4-6.6,12c0.3,19.3,0.2,38.6,0,58.4c0,3.2,1,5.5,3.3,7.3c1.1,0.8,2.1,1.7,3.2,2.6c3.4,2.8,7,5.7,10.7,8.3c10.4,7.1,20.9,14.3,31.2,21.3c8.3,5.6,16.9,11.5,25.3,17.3c3.9,2.7,7.8,5.5,11.6,8.3c2.7,1.9,5.4,3.9,8.1,5.9c1.2,0.8,2.5,1.5,3.7,2.2c0.6,0.3,1.1,0.6,1.7,0.9l0.2,0.1h2.5l0.2-0.1c0.5-0.3,0.9-0.5,1.4-0.8c1-0.6,2.1-1.1,3.1-1.8c28-19.4,56-38.7,83.9-58.1l0.7-0.5c1.6-1.1,3.2-2.2,4.7-3.4c1.1-0.9,2-2,3-3c0.4-0.4,0.8-0.9,1.2-1.3l0.3-0.3V62.3L202.7,62.1z M110,20l72.4,44.1l-36.6,25.5L123.6,76c-4.2-2.6-8.5-5.2-12.8-7.8c-0.4-0.2-0.8-0.8-0.8-1c0-13.7,0-27.2,0-41.5V20z M159.3,97.7l28.9-20.2v37.8L159.3,97.7z M95.6,20v9.5c0,12.3,0,24.7,0,37c0,1-0.2,1.4-0.9,1.8c-9.8,6-19.8,12.1-29.5,18.1l-4.5,2.8c-0.8,0.5-0.9,0.5-1.4,0.2c-9.3-6.5-18.8-13.1-27.9-19.5l-8.3-5.8L95.6,20z M17.3,115.2V77.5l29.2,20.3L17.3,115.2z M95.6,173.3v5.8l-72.4-50.4l18.2-11.1c5.6-3.4,11.3-6.9,16.9-10.4c0.8-0.5,1-0.5,1.8,0.1c5.8,4.1,11.6,8.1,17.4,12.2c5.7,4,11.4,7.9,17.1,11.9c0.5,0.4,0.9,1,0.9,1.2C95.6,146.1,95.6,159.3,95.6,173.3z M103.1,119.2c-0.1,0.1-0.5,0.1-0.5,0.1c-8.8-6.1-17.8-12.3-26.5-18.4l-3.4-2.4l7.9-4.8c6.9-4.2,14.1-8.6,21.1-12.9c0.9-0.6,1.4-0.6,2.4,0c6.9,4.3,14,8.5,20.8,12.7l7.6,4.6c0.2,0.1,0.4,0.2,0.6,0.4l-3.8,2.6C120.4,107.3,111.8,113.3,103.1,119.2z M110,179.1v-35.6c0-0.9,0-1.8,0-2.8c0-2.6,0-5.2,0.1-7.8c0-0.4,0.3-1,0.6-1.2c11.8-8.3,23.7-16.5,35.2-24.5c0.1-0.1,0.4-0.1,0.7-0.1c0.2,0,0.3,0,0.4,0.1c10.8,6.5,21.7,13.1,32.2,19.6l3.3,2L110,179.1z"/></g></g></g></svg>
