<?xml version="1.0" encoding="utf-8"?><svg version="1.1" id="Layer_1" xmlns="http://www.w3.org/2000/svg" xmlns:xlink="http://www.w3.org/1999/xlink" x="0px" y="0px" viewBox="0 0 227.5 200" style="enable-background:new 0 0 227.5 200;" xml:space="preserve"><path d="M193.7,0H33.8C15.2,0,0,17.1,0,38.2v123.6c0,21,15.2,38.2,33.8,38.2h159.9c18.6,0,33.8-17.1,33.8-38.2V38.2C227.5,17.1,212.3,0,193.7,0z M32.1,17.5c48.5,0,105.8-0.1,162.7,0c0.6,0,1.3,0.1,1.9,0.3c-9.3,9.5-21.2,21.9-32.6,33.9l-1.6,1.7c-24.2,25.4-33.9,35.2-37.5,38.9l-0.4,0.4c-4.9,5-8.4,8.5-10.9,11L54.9,44c-2.1-2.1-6.6-6.9-12-12.8l-2.2-2.4c-3.9-4.2-7.6-8.2-10.2-10.9C31,17.7,31.5,17.6,32.1,17.5z M211.7,41.4c0,1.1-0.2,105.7-0.1,121.4c0,2.6-1.5,9.6-6.2,14.6c-4.7,4.9-11.9,5-15.3,5h-0.4c-9.1,0.1-35.7,0.1-72.4,0c-23.7,0-52,0-83.5,0c-5.3,0-9.6-2.2-13.2-6.7c-2.5-3.1-5.3-8.5-4.8-16.7l0-121.6c0-1.3,0.4-4.6,1.7-7.9c0.9,1,2,2.3,3.3,3.6L31.2,45c5.4,5.9,23.1,24,52.9,53.7l13.4,13.4l0.4,0.5c3.1,3.2,6.1,6.2,9.2,9.3c4.8,4.8,8.8,4.8,13.6,0l9.9-10.1l4.3-4.3l9.5-9.8c0.3-0.3,0.5-0.5,0.7-0.7l4.5-4.6l38.4-39c1.9-1.9,7.6-8.2,13.2-14.3l2.4-2.6c2.4-2.6,4.7-5.1,6.3-6.9C211.4,33.2,211.7,39,211.7,41.4z"/></svg>