<?xml version="1.0" encoding="utf-8"?><svg version="1.1" id="Layer_1" xmlns="http://www.w3.org/2000/svg" xmlns:xlink="http://www.w3.org/1999/xlink" x="0px" y="0px" viewBox="0 0 227.5 200" style="enable-background:new 0 0 227.5 200;" xml:space="preserve"><g><g><path d="M90.1,200c-38.4-6.3-78.5-40.2-79.5-95.6c-1-52.8,42.6-99.2,95.9-104C160.9-4.5,207.8,34,215.6,85.8c8.5,55.7-32.4,102.3-75.5,114.2c0.6-6.1,0.8-30.8,0.7-34.7c0-6.4-0.5-9.1-1.1-11.4c-1.1-4.2-2.8-7.3-3.4-8.1c-0.6-0.8-1.1-1.7-1.7-2.6c4.2-1,8.2-2,12.2-3.1c1-0.3,2-0.6,2.9-0.9c16-4.9,24.5-16.3,27.4-32.2c1.5-8.2,2.2-16.6-0.4-24.8c-1.4-4.4-3.3-8.9-6-12.6c-2.1-2.8-1.8-4.9-1.1-7.6c1.5-6.7,0.4-13.2-1.5-19.7c-0.5-1.9-1.7-2.6-3.8-2.4c-8.8,0.9-16.8,6.1-16.8,6.1c-2.8,1.8-3,2.2-4.5,2.7c-4.4,1.6-8.5,0.5-10.4,0.1c-12.1-2.7-24.3-2.3-36.3,0.6c-3.3,0.8-6,0.6-8.9-1.5c-5.4-3.9-11.5-6.7-18.2-7.8c-4-0.7-4.6-0.4-5.7,3.5c-1.8,6.5-2.7,13-0.8,19.7c0.6,2,0.3,3.7-1,5.5c-12.7,17.5-8.9,43.3-0.1,55.4c8.6,11.8,23.3,15.9,26.5,16.8c3.3,0.9,6.2,1.4,8.2,1.6c-0.6,0.9-1.5,2.2-2.6,3.9c-3,4.9-2.8,15.1-4.2,16.4c-3.2,2.9-8.7,1.8-11.3,1.4c-3.7-0.6-6.9-1.7-9.3-4.4c-2.8-3-5.2-6.3-7.7-9.5c-1.5-2-3.3-3.6-5.3-4.7c-1.7-1-4.4-2.3-7.8-2.3c-1,0-3.8,0-4.2,1.1c-0.4,1.2,2.1,3,3.1,3.8c10.4,7.9,10.4,17.5,21.8,23.3c1.5,0.8,3.2,1.6,5.6,2.3c2,0.6,6.8,2.3,11.9,1.9c3.2-0.2,3.2-1.8,3.2,1.4C90,180,90.1,196.8,90.1,200z"/></g></g></svg>