<svg version="1.1" id="Layer_1" xmlns="http://www.w3.org/2000/svg" xmlns:xlink="http://www.w3.org/1999/xlink" x="0px" y="0px" viewBox="0 0 207.8 200" style="enable-background:new 0 0 207.8 200;" xml:space="preserve"><path class="st0" d="M75.2,159.9"/><g><g><g><path d="M203.8,74.7c-6.4-24.1-19.5-43-39-56C135.3-1,102.6-5.2,67.7,6.3c-21.9,7.2-39,20.5-51,39.6C1,70.9-3.6,97.9,2.8,126.1c8.2,36,31.4,60.7,68.9,73.3c1.2,0.4,2.5,0.6,3.8,0.6c2.4,0,4.7-0.7,6.8-2.2c3.2-2.2,5.1-5.9,5.2-9.7l0-0.1l0-0.1c-1-7.6-1-15.3-0.1-22.9c0.5-3.8,1.2-7.5,2.1-11.2c0.8-1.6,1.6-3.1,2.4-4.5l0.3-0.6c0.9-1.5,1.5-2.6,1.6-4.2c0-0.9-0.1-1.9-0.4-2.8c-0.9-2.7-3-4.4-6.1-4.9c-0.9-0.2-1.9-0.3-2.8-0.5c-3.7-0.6-7.6-1.3-11.3-2.3c-8.7-2.4-14.9-7.1-18.5-14.1c-4.5-8.6-5.8-18.1-4.1-29.2c0.8-5,3.6-9.1,6.6-12.8c2.6-3.2,3.2-6.4,1.8-10.1c-1.5-3.9-1.6-8.3-0.2-13.3c0.2,0,0.4,0.1,0.7,0.2c1,0.3,2,0.5,2.8,0.9c4.6,2.3,8.3,4.3,11.6,6.2c3.4,2,6.5,2.4,10.1,1.5c12.6-3.2,24.3-3.5,35-0.9c8.2,2,14.4,0.8,20.4-3.7c2-1.5,4.5-2.4,7.1-3.4c0.9-0.3,1.8-0.7,2.7-1c1.3,5,1.2,9.7-0.3,14.5c-1.1,3.6-0.4,6.5,2.2,9.2c3,3.2,5.1,7.3,6.3,12.1c1.3,5.4,0.8,10.9,0.3,16.1c-1.6,15.1-9.5,24.3-24.2,27.9c-1.6,0.4-3.1,0.8-4.7,1.1c-3.2,0.7-6.6,1.5-9.8,2.5c-2.5,0.8-4.3,2.6-4.8,4.8c-0.6,2.3,0.3,4.9,2.3,6.9c1.8,1.8,2.9,3.8,3.4,6.3c1,4.6,0.8,9.4,0.6,14c0,1.4-0.1,2.7-0.1,4.1c0,0.8,0,1.6-0.1,2.4c-0.1,4.1-0.2,8.3,0.3,12.4c0.5,3.8,2.1,6.8,4.7,8.7c2.7,2,6.2,2.6,10.1,2c2.8-0.5,5.4-1.5,8-2.5c22.6-8.8,39.6-22.8,50.7-41.9C208.2,130.5,211.5,103.5,203.8,74.7z M136.7,165c-0.4-5.1-1.5-10.2-3.2-15.1c0.4-0.1,0.8-0.2,1.1-0.3c1.6-0.4,3-0.9,4.5-1.3c19.2-6.3,32-22.8,33.6-42.9c1-13.4-1.8-24.7-8.6-34.5c-0.2-0.2-0.2-0.8-0.1-1.5c1.2-7.7,0.8-14.6-1-21.2c-0.3-1.2-0.8-2.4-1.6-3.9c-1.5-3.1-4.1-4.7-7.6-4.9c-7-0.3-13.2,2.1-18.4,4.5l-0.8,0.4c-1.5,0.7-3.1,1.4-4.5,2.5c-2,1.5-4.1,1.8-7.3,1.2c-12.9-2.6-26.6-2.5-40.6,0.4c-0.7,0.2-1.8,0-2.5-0.4c-5.7-3.2-12.5-6.6-20.3-8.2l-0.1,0c-0.1,0-0.2-0.1-0.3-0.1c-8.3-1.5-11.9,0.7-14.3,8.6c-2.2,7.1-2.5,14.2-1.1,21.2c0.1,0.5-0.1,1.3-0.4,1.8c-6.8,9.7-9.5,20.9-8.1,34.4c1.2,12.1,5.5,22.1,13,30.6c3.9,4.4,8.2,6.5,10.7,7.7l0.5,0.2c5,2.5,10.4,4,16,4.5c-0.8,2-1.3,4.1-1.7,6l-0.1,0.5c-0.2,0.9-0.2,1.3-0.5,1.7c-1.2,1.5-4.2,1.2-5.8,1.1c-3.6-0.3-6.2-1.6-6.7-1.9c-3.9-2.1-6.1-5.2-10-10.9c-0.8-1.2-1.7-2.4-2.7-3.8c-3.6-5.1-11.3-13.3-16.4-13.4c-1.7-0.1-3.7,1.3-4.7,2.5c-0.6,0.7-1.2,1.8-0.9,2.8c0.6,2.6,2.2,4.4,4.5,6.9c2,2.2,4.5,5,7.4,9.5c4.9,7.6,8.8,12.8,11.7,15.5c0.7,0.6,1.4,1.2,2.1,1.7c2.1,1.5,4.5,2.6,6,3.3c0.3,0.2,0.6,0.3,0.8,0.4c6.1,3,11.7,2,14,1.5c0,0,0,0,0,0c0.1,3.1-0.2,7.9-2.2,9.3c-1.3,0.9-3.8,0.5-7.2-1.2l-18.5-12.1c-0.3-0.2-0.6-0.5-0.8-0.7c-0.5-0.4-1-0.8-1.4-1.2c-14.9-13.7-23.7-30.8-26.2-50.8C12.7,89.7,19,66.7,34.7,46.8C47.8,30.2,65.6,20,87.4,16.5c18.7-3,36.3-1.2,52.2,5.3c23.5,9.7,39.6,27,48.1,51.6c8.4,24.4,6.9,48-4.6,70.2c-8.8,17-22.9,29.8-42.1,38c-1.5,0.7-3.2,1.3-4.8,1.8l-1.1,0.4C136.7,177.7,137.2,171.3,136.7,165z"/></g></g></g></svg>