<?xml version="1.0" encoding="utf-8"?><svg version="1.1" id="Layer_1" xmlns="http://www.w3.org/2000/svg" xmlns:xlink="http://www.w3.org/1999/xlink" x="0px" y="0px" viewBox="0 0 203.2 200" enable-background="new 0 0 203.2 200" xml:space="preserve"><g><g><g><g><path d="M203.1,106.3c0-4.6-0.4-8.6-1.3-12.2c-4.2-17.9-15.1-30.1-32.3-36.2c-7.3-2.6-14.7-2.7-22.3-2.6c-11.4,0.2-21.4,3.6-29.8,10.1c-0.5-1.1-1.1-2.1-2-3c-2.3-2.5-5.6-3.9-9.2-3.8c-6.7,0.2-13.5,0.1-20.1,0.1l-3.8,0c-2,0-4,0-6,0c-7.4,0-11.6,4.3-11.6,11.7v118.4c0,7,4.2,11.3,11.4,11.3l16.8,0l17.2,0c7.2,0,11.4-4.3,11.4-11.5v-17.2c0-16.6,0-33.3,0-49.9c0-1.7,0.1-3.2,0.3-4.5c1.1-7.8,7.8-13,15.6-12.1c5,0.6,11.1,3.7,12,10.7c0.2,1.7,0.3,3.5,0.3,5.8c0,13.9,0,27.8,0,41.7l0,25.2c0,7.2,4.5,11.8,11.7,11.8c10,0,20.1,0,30.1,0c7.1,0,11.6-4.6,11.6-11.7l0-18.4c0-7.4,0-14.8,0-22.3C203.2,133.9,203.2,120.1,203.1,106.3z M164.1,120.7c-0.1-4.9-0.7-9.2-1.9-13c-3.5-10.6-14.8-17.9-27-17.5c-14.9,0.6-27,12.6-27.6,27.4c-0.2,4.1-0.1,8.2-0.1,12.2l0,0.6c0,1.3,0,2.6,0,3.9c0,12.7,0,25.4,0,38.1v13H79.7V73.1h24.4v23.6c5.1-7,10.3-11.9,14.2-15c2.1-1.7,7.5-6.2,13.3-8.4c1.9-0.7,5.1-1.8,8.2-2.5c1.2-0.3,2-0.4,2.7-0.6c1.4-0.2,3.3-0.5,5.5-0.5c6.8-0.1,12.8,0,18.3,2.2c13.8,5.7,21.1,16,22.5,31.5c0.1,0.9,0.1,1.9,0.1,2.9v79h-24.4c0-5.1,0-10.1,0-15.2v-0.6C164.3,153.5,164.3,137,164.1,120.7z"/></g></g><g><g><path d="M42.1,58.6h-2.7c4.7-1.5,9-4.3,12.5-8c6.7-7.2,9.5-17.2,7.6-26.8C56.6,10.1,44.5,0.1,30.4,0h-0.3C16.2,0,4.1,9.6,0.8,23.3L0,26.7v7.4l0.3,0.7c0,0.1,0.1,0.2,0.2,0.4c2.1,11.4,9.9,20.1,20.4,23.5H18c-9.2,0-14.8,5.5-14.8,14.6c0,35.8,0,73.5,0,112.1c0,8.8,5.9,14.7,14.7,14.7c3.8,0,7.6,0,11.7,0c3.9,0,8.1,0,12.4,0c8.8,0,14.8-6,14.8-14.8v-71.5c0-13.5,0-26.9,0-40.4c0-4.4-1.5-8-4.1-10.6C50.1,60.1,46.4,58.6,42.1,58.6z M2,34.6L2,34.6l0.3-0.2L2,34.6z M18.8,40.8c-2.8-2.8-4.3-6.7-4.3-10.9c0.1-8.8,6.9-15.4,15.8-15.5l0.2,0c3.8,0,7.5,1.6,10.4,4.4c3,3,4.7,6.9,4.7,11.1v0c0,8.3-6.8,15.6-14.5,15.6C26.2,45.6,21.8,43.9,18.8,40.8z M42.3,185.5c-0.2,0-0.5,0-0.7,0c-7.8,0-15.6,0-23.4,0c-0.2,0-0.4,0-0.5,0c0-0.1,0-0.3,0-0.5c0-37.2,0-74.3,0-111.5c0-0.1,0-0.3,0-0.5h23.7c0.2,0,0.6,0,0.9,0c0,0.3,0,0.7,0,0.9V185.5z"/></g></g></g></g></svg>