<svg id="Layer_1" data-name="Layer 1" xmlns="http://www.w3.org/2000/svg" viewBox="0 0 199.64 200"><path d="M194.36,146.11c-8.29-8.79-17.44-18-28.79-28.87a18.27,18.27,0,0,0-21.7-2.68,50.59,50.59,0,0,0-9,7.18l-.18.16c-2.72,2.55-5.39,5.3-8,7.94-1.1,1.15-2.26,2.34-3.41,3.5-1-.55-2-1.07-2.93-1.59-2.1-1.12-4.08-2.19-6-3.42a138.14,138.14,0,0,1-26.84-22.58c-6.9-7.36-14.71-16.39-20.22-27.54a2,2,0,0,1,.48-2.79l0,0c1.06-1.06,2.13-2.1,3.2-3.15,4-4,8.2-8.08,12-12.39a19,19,0,0,0-.12-25.52c-10-10.75-19.1-19.89-27.7-27.94C46.16-2,36-2.15,26.54,6.06c-4.67,4-9,8.59-13.27,13-1.34,1.39-2.71,2.81-4.08,4.21A30.9,30.9,0,0,0,1,39.05C.66,40.73.47,42.46.3,44.12c-.11.75-.2,1.53-.3,2.31v2.92c.14,1.12.27,2.26.4,3.37.28,2.46.56,5,1,7.43A119.91,119.91,0,0,0,12.78,91.78,219.48,219.48,0,0,0,46,139.93,219.57,219.57,0,0,0,90.87,177.4c15.69,9.91,29.44,16.21,43.28,19.83a102.31,102.31,0,0,0,13.43,2.47c1.51.13,3.5.3,5.72.3a35.15,35.15,0,0,0,4.92-.32c7.38-1,13.22-3.66,17.88-8.14,7.7-7.45,13.42-13.36,18.54-19.18a19.75,19.75,0,0,0,5-13.05A19.22,19.22,0,0,0,194.36,146.11ZM58.16,67.52c-5,4.88-5.62,8-2.73,14.32,5.79,12.78,14.78,23.36,22,31.16a148.15,148.15,0,0,0,33.24,27.52c2.42,1.43,5,2.73,7.46,4l.93.48c4.26,2.17,8.18,1.52,11.69-1.92,2.94-2.9,5.92-5.88,8.8-8.75,1.85-1.86,3.72-3.72,5.58-5.57a26.13,26.13,0,0,1,2.27-2.08c3.66-2.88,7.53-2.74,10.87.4,2,1.82,3.89,3.77,5.75,5.65l2.49,2.5,16.12,16.07c.79.79,1.55,1.58,2.25,2.43a8.08,8.08,0,0,1,.2,11.12,36.32,36.32,0,0,1-2.64,2.9l-.43.43-4.35,4.44c-2.57,2.6-5.23,5.3-7.79,8-4.61,4.88-10.28,7.17-17.81,7.17h-.38A71,71,0,0,1,131,183.46c-28.75-10.63-54.4-28.29-76.24-52.46-12.92-14.31-22.9-28.71-30.5-44-5.37-10.8-8.71-20-10.55-28.83-1.31-6.29-2.17-13,.38-19.51a27,27,0,0,1,5.18-8c3.68-4,7.64-7.87,11.48-11.61l3-2.92c2.42-2.39,4.73-3.58,7-3.58s4.68,1.22,7.16,3.69c7.87,7.84,15.85,15.83,23.57,23.56a22.1,22.1,0,0,1,1.66,1.83c3.23,3.9,3.18,7.66-.15,11.15C68.18,57.83,63.1,62.75,58.16,67.52Z"/></svg>